<?xml version="1.0" encoding="utf-8"?>
<!-- Generator: Adobe Illustrator 17.1.0, SVG Export Plug-In . SVG Version: 6.00 Build 0)  -->
<!DOCTYPE svg PUBLIC "-//W3C//DTD SVG 1.1//EN" "http://www.w3.org/Graphics/SVG/1.1/DTD/svg11.dtd">
<svg version="1.1" id="Layer_1" xmlns="http://www.w3.org/2000/svg" xmlns:xlink="http://www.w3.org/1999/xlink" x="0px" y="0px"
	 viewBox="218 108 113 127" enable-background="new 218 108 113 127" xml:space="preserve">
<g>
	<path fill="#FFFFFF" d="M244,120.4l4.1-3h21.5l4.3,3.5c0,0-4.1-0.7-4.1,4.3c0,5.1,0,6.8,0,6.8h-5.1v-8.2h-16.4
		C248.4,123.9,247.7,120.4,244,120.4z"/>
	<path fill="#FFFFFF" d="M280.8,125.2c0-5.1-4.1-4.3-4.1-4.3l4.3-3.5h21.5l4.1,3c-3.7,0-4.4,3.5-4.4,3.5h-16.4v10.8h10.7l4.5,3
		c0,0-4.5,0.1-4.5,6.1s0,7.6,0,7.6h-8.9c0,0,3.3-2.9,3.3-7s0-4.4,0-4.4h-4.6v18.9l-5.2,4.3v-23.2h-20.8v15.6l-5.3-4.3v-8.7
		c0,0-0.1-3.7-5.8-3.7l5.5-4.4h26V125.2z"/>
	<path fill="#FFFFFF" d="M311.6,154l-4.2-3h-5.7L276,171.2l-6-4.2v-23.4h-5.3l0.1,19l-14-11.4h-6.4l-5.4,3.4c5.2,0,5.5,4.8,5.5,4.8
		v34.9c0,5.4-3.4,6.6-3.4,6.6h8.6V156l5.9,5.1v42h9.4v14.5H256v-9h-9.2l3.4,3.3v2.4c0,5.6-3.5,6-3.5,6l4.6,2.2h19.3v-50l3.3,2.1
		c0,2.4-2.1,3.5-2.1,3.5c2.7,0,4.5,2.4,4.5,2.4c0-1.5,3.7-2.2,3.7-2.2c-1.7,0-1.5-3.6-1.5-3.6l2.5-1.7v9.9h-5.1l-3.3,3.5
		c2.8,0,4,4,4,4c0-2.1,4.4-2.1,4.4-2.1v6.5h5.3v-6.4h5v9.5h-16.5v5.2h6.4v20h21.4l4-2.7c-4.1,0-4.5-4.2-4.5-4.2v-4.8l2.8-3.2h-8.7
		v9.9h-9.4v-14.9h10.7v-20.2h-11v-13.7l15.7-13.2v45.5h8.8c-3.5,0-3.8-6-3.8-6s0-29,0-35.1S311.6,154,311.6,154z M265.2,197.4h-4.4
		v-32.7l4.4,3.4V197.4z"/>
</g>
</svg>
