<?xml version="1.0" encoding="utf-8"?>
<!-- Generator: Adobe Illustrator 17.1.0, SVG Export Plug-In . SVG Version: 6.00 Build 0)  -->
<!DOCTYPE svg PUBLIC "-//W3C//DTD SVG 1.1//EN" "http://www.w3.org/Graphics/SVG/1.1/DTD/svg11.dtd">
<svg version="1.1" id="Layer_1" xmlns="http://www.w3.org/2000/svg" xmlns:xlink="http://www.w3.org/1999/xlink" x="0px" y="0px"
	 viewBox="0 0 180 180" enable-background="new 0 0 180 180" xml:space="preserve">
<g>
	<path fill="#FFFFFF" d="M90,107.3c9.5,0,17.3-7.8,17.3-17.3c0-9.5-7.8-17.3-17.3-17.3c-9.5,0-17.3,7.8-17.3,17.3
		C72.7,99.5,80.5,107.3,90,107.3z"/>
	<path fill="#FFFFFF" d="M122.5,55.4h-8.7c-1.3,0-2.2,0.9-2.2,2.2v8.7c0,1.3,0.9,2.2,2.2,2.2h8.7c1.3,0,2.2-0.9,2.2-2.2v-8.7
		C124.6,56.2,123.8,55.4,122.5,55.4z"/>
	<path fill="#FFFFFF" d="M116,90c0,14.3-11.7,26-26,26s-26-11.7-26-26c0-1.3,0-3,0.4-4.3h-9.1v36.8c0,1.3,0.9,2.2,2.2,2.2h65
		c1.3,0,2.2-0.9,2.2-2.2V85.7h-9.1C116,87,116,88.7,116,90z"/>
	<path fill="#FFFFFF" d="M90,4.6C42.8,4.6,4.6,42.8,4.6,90c0,47.2,38.2,85.4,85.4,85.4c47.2,0,85.4-38.2,85.4-85.4
		C175.4,42.8,137.2,4.6,90,4.6z M133.3,124.6c0,4.8-3.9,8.7-8.7,8.7H55.4c-4.8,0-8.7-3.9-8.7-8.7V55.4c0-4.8,3.9-8.7,8.7-8.7h69.3
		c4.8,0,8.7,3.9,8.7,8.7V124.6z"/>
</g>
</svg>
