<?xml version="1.0" encoding="utf-8"?>
<!-- Generator: Adobe Illustrator 17.1.0, SVG Export Plug-In . SVG Version: 6.00 Build 0)  -->
<!DOCTYPE svg PUBLIC "-//W3C//DTD SVG 1.1//EN" "http://www.w3.org/Graphics/SVG/1.1/DTD/svg11.dtd">
<svg version="1.1" id="Layer_1" xmlns="http://www.w3.org/2000/svg" xmlns:xlink="http://www.w3.org/1999/xlink" x="0px" y="0px"
	 viewBox="0 0 180 180" enable-background="new 0 0 180 180" xml:space="preserve">
<g>
	<path fill="#FFFFFF" d="M118.9,83.1c-9.7,0-11.1,9.7-11.1,9.7h20.7C128.5,92.8,128.6,83.1,118.9,83.1z"/>
	<path fill="#FFFFFF" d="M72,92.8H53.7v16.8h17.5c2.6-0.1,7.5-0.9,7.5-8.2C78.6,92.7,72,92.8,72,92.8z"/>
	<path fill="#FFFFFF" d="M76.5,75.6c0-6.5-4.4-6.5-4.4-6.5H53.7v14h17.2C73.8,83.1,76.5,82.2,76.5,75.6z"/>
	<path fill="#FFFFFF" d="M90,4.6C42.8,4.6,4.6,42.8,4.6,90s38.2,85.4,85.4,85.4s85.4-38.2,85.4-85.4S137.2,4.6,90,4.6z M105.1,61.6
		h26v7.7h-26V61.6z M92,102.2c0,19.2-20,18.6-20,18.6H39.3V57.9H72c9.9,0,17.8,5.5,17.8,16.8c0,11.3-9.6,12-9.6,12
		C92.9,86.6,92,102.2,92,102.2z M140.5,101.2H108c0,11.7,11.1,10.9,11.1,10.9c10.5,0,10.1-6.8,10.1-6.8h11.1
		c0,18-21.5,16.7-21.5,16.7c-25.8,0-24.2-24-24.2-24s0-24.2,24.2-24.2C144.1,73.9,140.5,101.2,140.5,101.2z"/>
</g>
</svg>
