<?xml version="1.0" encoding="utf-8"?>
<!-- Generator: Adobe Illustrator 17.1.0, SVG Export Plug-In . SVG Version: 6.00 Build 0)  -->
<!DOCTYPE svg PUBLIC "-//W3C//DTD SVG 1.1//EN" "http://www.w3.org/Graphics/SVG/1.1/DTD/svg11.dtd">
<svg version="1.1" xmlns="http://www.w3.org/2000/svg" xmlns:xlink="http://www.w3.org/1999/xlink" x="0px" y="0px"
	 viewBox="0 0 345.3 302.8" enable-background="new 0 0 345.3 302.8" xml:space="preserve">
<g id="Layer_4">
</g>
<g id="Layer_2">
</g>
<g id="Layer_3">
	<g>
		<g>
			<path fill="#FFFFFF" d="M113.7,196c-30.9,5-37.3,6.8-38.3,7.4c-2.5-2.3-15.7-16.6,1-59.1c18.4-46.8,8.6-65.2-3.3-64.9
				c0,0,12.2,14.9-5.6,59.4c-17.8,44.5-9.7,56.7-4.1,68.6c0,0-47,13.7-47,33s19.8,6.9,19.8,6.9s-11.5,2.6-11.5-7.2
				s35.9-25.8,62.6-30.7s90.7-4.9,78.6-37.9C165.9,171.6,159.6,188.5,113.7,196z"/>
			<path fill="#FFFFFF" d="M227,127.9c0,0,0.6-4.2,2.8-8.1c0,0,5.1-7.1-6.6-12.4c0,0,1.2,3.6-1.2,9.5
				C219.7,122.8,223.7,126.3,227,127.9z"/>
			<path fill="#FFFFFF" d="M302,128c12.8-11.1,7.2-23.2,0.3-27.3c0,0,5.8,9.5-4.4,19.3c-2.5,2.4-4.9,4.8-7,7.1
				c-1.4-7-6.5-8.4-6.5-8.4c-11.5,0-16.2,25.9-16.2,25.9s-5.7,13.9-8.9,13.9c-3.2,0,6.5-28.6,6.5-28.6c-1.9-7-6.5-6.6-6.5-6.6
				c-11.2,0-18.5,21.9-18.5,21.9s-0.1-3.7,2.4-13.6c2.5-9.9-8.2-9.7-8.2-9.7c0.9,2.7,0.2,5,0.2,5l-2.8,12.4
				c-5.7,16.2-10.2,20.3-10.2,20.3c-1-4.1-0.1-9.8,3-21.1c3.1-11.4-7-11.6-7-11.6c0.6,2.7-0.1,5.2-0.1,5.2l-4.4,14.4
				c-5.8,12-8.4,12-8.4,12c-5,0,4.8-22.1,4.8-22.1c0-3.1-3.1-5.1-3.1-5.1c-6,0.2-9.8-1.5-9.8-1.5c3.1-10.8,2.7-19.5,2.7-19.5
				c12.3-5.5,28.2-7.3,34.4-7.9c1.7-0.1,3.5-0.2,5.2-0.2c28.4,0.8,25,16.5,25,16.5c6.7-3,11.2-29.1-11.2-29.1s-54.4,12-54.4,12
				s0.5-13.8-13.8-13.8c-14.3,0-15.6,20.2-15.6,20.2s-4.7,1.6-11.5,3.6c2.2-16.6,4.5-30.8,4.5-30.8c1.6-13.4-11-10.9-11-10.9
				c2.9,4,2.1,8.9,2.1,8.9l-5,35.5c-4.3,1.2-8.9,2.4-13.3,3.5c0.9-5.3,1.7-9.7,2.1-12.1c1.9-11.1-9.9-9.2-9.9-9.2
				c1.6,1.7,1.1,5.4,1.1,5.4l-2.7,18c-4.1,0.7-7.7,1.2-10.5,1.2c-14.9,0-23.3-14.1-23.3-14.1c0,10.4,5.5,23,23.1,23
				c2.7,0,5.8-0.3,9.3-0.8l-3.2,21.4c0,0-3.6,21.5-12.4,21.5c-8.7,0-5.9-13-5.9-13c15.8,0,14.3-22.5,6.2-22.5s-14.2,9.1-14.2,17.9
				c0,8.8-0.1,21.5,12.1,21.5c12.2,0,14.3-15.7,14.3-15.7c0,4.8,0.1,13.5,9.1,13.5c9,0,14.8-30.5,14.8-30.5c0,20.1,2.4,25.8,8,25.8
				c5.5,0,8.4-10.7,8.4-10.7c1.4,11,12.2,9.9,12.2,9.9c14.4,0,21.6-34.4,21.6-34.4c2.3,1.2,4.3,1.4,4.3,1.4
				c-4.3,12.6-3.2,27.5,3,27.5c6.2,0,9.7-9.3,9.7-9.3c0,5.1,1.6,12.1,7.8,12.1c6.2,0,11.2-14.8,11.2-14.8c-1.4,10.5,7.7,10,7.7,10
				c5.3-22.3,15.3-30.1,15.3-30.1c-6.6,22.4-2.7,33.2,3.6,33.2c6.2,0,9.5-12,9.5-12c-0.3,7.2,3.4,10.2,3.4,10.2
				c-25.3,19.4-36.2,3.9-36.2,3.9c0.7,10.7,12.1,18.9,32.1,8.9c20-10,31-9.3,31-3.4c0,5.9-11.4,21.9-45.5,12.3
				c-25.5-7.1-40.2-9.5-46-10.2c-2.5-0.3-5-0.4-7.5,0c-20.9,2.9-11.3,26.3-11.3,26.3s0.5-16.6,16.6-16.6s63.9,14,74.7,11.2
				c6.2-1.6,23.2-4.1,23.2-23.7c0-19.6-20.5-12.1-20.5-12.1c3.3-5.9,5.6-10.9,7.1-15.2c1.1,0.7,2.5,1.3,4.2,1.9
				C292.9,145.2,289.1,139.1,302,128z M111.6,142.6c0,0,0.4,11.2-8.4,13.5C103.2,156.1,103.8,146.4,111.6,142.6z M132,167.9
				c-4.4,0-1.5-22.1,1.5-40.4c4.5-0.9,9.1-2,13.5-3.1C146.5,127.1,138.4,167.9,132,167.9z M174.8,164.1c-8.6,0-5.2-13-5.2-13
				c13-1,17.1-21.8,6.9-21.8c-10.3,0-14,16.3-14,16.3c-5.1,18.8-7.6,17.9-7.6,17.9c-2.9,0-1.1-20.8,1.5-41.5
				c8.9-2.4,15.4-4.5,15.4-4.5c10.1,11.6,17.2,14.1,17.2,14.1S183.4,164.1,174.8,164.1z M169.9,148.6c0,0,0.9-8.5,9.2-13.5
				C179,135.1,179.5,145.2,169.9,148.6z M191.2,103.7l-8.4,2.3c0,0-2.4,5.5,0.4,8.6c0,0,4.8-1.2,7.7-1.8c0,0,0.7,7.1-1,14.6
				c0,0-11.7-4.7-11.7-16.4c0-11.7,13.1-21.9,13.1-13.9L191.2,103.7z M275.9,159c-1.2-16.2,9.7-31.1,9.7-31.1
				c0.4,1.9,0.6,3.8,0.6,5.6c-1.1,2.3-1.5,4.4-0.7,6.3C283.1,150.6,275.9,159,275.9,159z"/>
		</g>
		<g>
			<path fill="none" stroke="#FFFFFF" stroke-width="0.6445" stroke-miterlimit="10" d="M115.3,197.6c-30.9,5-37.3,6.8-38.3,7.4
				c-2.5-2.3-15.7-16.6,1-59.1c18.4-46.8,8.6-65.2-3.3-64.9c0,0,12.2,14.9-5.6,59.4c-17.8,44.5-9.7,56.7-4.1,68.6c0,0-47,13.7-47,33
				s19.8,6.9,19.8,6.9s-11.5,2.6-11.5-7.2s35.9-25.8,62.6-30.7s90.7-4.9,78.6-37.9C167.5,173.2,161.2,190.1,115.3,197.6z"/>
			<path fill="none" stroke="#FFFFFF" stroke-width="0.6445" stroke-miterlimit="10" d="M228.6,129.6c0,0,0.6-4.2,2.8-8.1
				c0,0,5.1-7.1-6.6-12.4c0,0,1.2,3.6-1.2,9.5C221.3,124.4,225.3,128,228.6,129.6z"/>
			<path fill="none" stroke="#FFFFFF" stroke-width="0.6445" stroke-miterlimit="10" d="M303.6,129.6c12.8-11.1,7.2-23.2,0.3-27.3
				c0,0,5.8,9.5-4.4,19.3c-2.5,2.4-4.9,4.8-7,7.1c-1.4-7-6.5-8.4-6.5-8.4c-11.5,0-16.2,25.9-16.2,25.9s-5.7,13.9-8.9,13.9
				s6.5-28.6,6.5-28.6c-1.9-7-6.5-6.6-6.5-6.6c-11.2,0-18.5,21.9-18.5,21.9s-0.1-3.7,2.4-13.6c2.5-9.9-8.2-9.7-8.2-9.7
				c0.9,2.7,0.2,5,0.2,5l-2.8,12.4c-5.7,16.2-10.2,20.3-10.2,20.3c-1-4.1-0.1-9.8,3-21.1c3.1-11.4-7-11.6-7-11.6
				c0.6,2.7-0.1,5.2-0.1,5.2l-4.4,14.4c-5.8,12-8.4,12-8.4,12c-5,0,4.8-22.1,4.8-22.1c0-3.1-3.1-5.1-3.1-5.1c-6,0.2-9.8-1.5-9.8-1.5
				c3.1-10.8,2.7-19.5,2.7-19.5c12.3-5.5,28.2-7.3,34.4-7.9c1.7-0.1,3.5-0.2,5.2-0.2c28.4,0.8,25,16.5,25,16.5
				c6.7-3,11.2-29.1-11.2-29.1s-54.4,12-54.4,12s0.5-13.8-13.8-13.8c-14.3,0-15.6,20.2-15.6,20.2s-4.7,1.6-11.5,3.6
				c2.2-16.6,4.5-30.8,4.5-30.8c1.6-13.4-11-10.9-11-10.9c2.9,4,2.1,8.9,2.1,8.9l-5,35.5c-4.3,1.2-8.9,2.4-13.3,3.5
				c0.9-5.3,1.7-9.7,2.1-12.1c1.9-11.1-9.9-9.2-9.9-9.2c1.6,1.7,1.1,5.4,1.1,5.4l-2.7,18c-4.1,0.7-7.7,1.2-10.5,1.2
				c-14.9,0-23.3-14.1-23.3-14.1c0,10.4,5.5,23,23.1,23c2.7,0,5.8-0.3,9.3-0.8l-3.2,21.4c0,0-3.6,21.5-12.4,21.5
				c-8.7,0-5.9-13-5.9-13c15.8,0,14.3-22.5,6.2-22.5s-14.2,9.1-14.2,17.9c0,8.8-0.1,21.5,12.1,21.5c12.2,0,14.3-15.7,14.3-15.7
				c0,4.8,0.1,13.5,9.1,13.5c9,0,14.8-30.5,14.8-30.5c0,20.1,2.4,25.8,8,25.8c5.5,0,8.4-10.7,8.4-10.7c1.4,11,12.2,9.9,12.2,9.9
				c14.4,0,21.6-34.4,21.6-34.4c2.3,1.2,4.3,1.4,4.3,1.4c-4.3,12.6-3.2,27.5,3,27.5s9.7-9.3,9.7-9.3c0,5.1,1.6,12.1,7.8,12.1
				c6.2,0,11.2-14.8,11.2-14.8c-1.4,10.5,7.7,10,7.7,10c5.3-22.3,15.3-30.1,15.3-30.1c-6.6,22.4-2.7,33.2,3.6,33.2
				c6.2,0,9.5-12,9.5-12c-0.3,7.2,3.4,10.2,3.4,10.2c-25.3,19.4-36.2,3.9-36.2,3.9c0.7,10.7,12.1,18.9,32.1,8.9c20-10,31-9.3,31-3.4
				c0,5.9-11.4,21.9-45.5,12.3c-25.5-7.1-40.2-9.5-46-10.2c-2.5-0.3-5-0.4-7.5,0c-20.9,2.9-11.3,26.3-11.3,26.3s0.5-16.6,16.6-16.6
				s63.9,14,74.7,11.2c6.2-1.6,23.2-4.1,23.2-23.7c0-19.6-20.5-12.1-20.5-12.1c3.3-5.9,5.6-10.9,7.1-15.2c1.1,0.7,2.5,1.3,4.2,1.9
				C294.5,146.9,290.8,140.7,303.6,129.6z M113.3,144.3c0,0,0.4,11.2-8.4,13.5C104.8,157.8,105.5,148.1,113.3,144.3z M133.7,169.6
				c-4.4,0-1.5-22.1,1.5-40.4c4.5-0.9,9.1-2,13.5-3.1C148.1,128.7,140.1,169.6,133.7,169.6z M176.5,165.7c-8.6,0-5.2-13-5.2-13
				c13-1,17.1-21.8,6.9-21.8c-10.3,0-14,16.3-14,16.3c-5.1,18.8-7.6,17.9-7.6,17.9c-2.9,0-1.1-20.8,1.5-41.5
				c8.9-2.4,15.4-4.5,15.4-4.5c10.1,11.6,17.2,14.1,17.2,14.1S185,165.7,176.5,165.7z M171.5,150.2c0,0,0.9-8.5,9.2-13.5
				C180.7,136.7,181.1,146.9,171.5,150.2z M192.9,105.4l-8.4,2.3c0,0-2.4,5.5,0.4,8.6c0,0,4.8-1.2,7.7-1.8c0,0,0.7,7.1-1,14.6
				c0,0-11.7-4.7-11.7-16.4c0-11.7,13.1-21.9,13.1-13.9L192.9,105.4z M277.5,160.7c-1.2-16.2,9.7-31.1,9.7-31.1
				c0.4,1.9,0.6,3.8,0.6,5.6c-1.1,2.3-1.5,4.4-0.7,6.3C284.7,152.2,277.5,160.7,277.5,160.7z"/>
		</g>
		<g>
			<path fill="#FFFFFF" d="M119.4,49.8l1.2,1.9c1.5,2.2,1.2,4.2-1,5.7c-2.2,1.4-4.1,0.9-5.6-1.4l-4.7-7.3c-1.5-2.2-1.2-4.2,1-5.7
				c2.2-1.4,4.1-0.9,5.6,1.4l0.9,1.4l-2.1,1.4l-1-1.5c-0.7-1-1.3-1.1-2-0.6s-0.9,1.1-0.2,2.1l4.9,7.6c0.7,1,1.3,1.1,2,0.6
				c0.7-0.5,0.9-1.1,0.3-2.1l-1.3-2L119.4,49.8z"/>
			<path fill="#FFFFFF" d="M136.7,30.2l4.2,12.2c0.4,1.1,1,1.4,1.8,1.1c0.8-0.3,1.1-0.8,0.8-2l-4.2-12.2l2.3-0.8l4.1,12
				c0.9,2.5,0.1,4.4-2.3,5.2c-2.4,0.8-4.2-0.2-5.1-2.7l-4.1-12L136.7,30.2z"/>
			<path fill="#FFFFFF" d="M167.9,23.2c2.5-0.2,4,1.2,4.2,3.8l0,0.5l-2.5,0.2l-0.1-0.7c-0.1-1.2-0.6-1.6-1.5-1.5
				c-0.8,0.1-1.3,0.6-1.2,1.8c0.1,1.2,0.7,2.1,2.6,3.4c2.4,1.7,3.2,3.1,3.3,5c0.2,2.7-1,4.3-3.5,4.5c-2.6,0.2-4-1.2-4.3-3.8l-0.1-1
				l2.5-0.2l0.1,1.2c0.1,1.2,0.7,1.6,1.5,1.5c0.8-0.1,1.3-0.5,1.2-1.7c-0.1-1.2-0.7-2.1-2.6-3.4c-2.4-1.7-3.2-3.1-3.3-5
				C164.2,25,165.3,23.4,167.9,23.2z"/>
			<path fill="#FFFFFF" d="M193.8,23.7l8,1.2l-0.4,2.4l-2.7-0.4L196.7,41l-2.6-0.4l2.1-14.1l-2.7-0.4L193.8,23.7z"/>
			<path fill="#FFFFFF" d="M221.9,34.6c1-2.5,2.9-3.3,5.3-2.4c2.4,1,3.1,2.9,2.1,5.4l-3.3,8c-1,2.5-2.9,3.3-5.3,2.4
				c-2.4-1-3.1-2.9-2.1-5.4L221.9,34.6z M220.9,43.8c-0.5,1.1-0.1,1.7,0.6,2c0.8,0.3,1.4,0.1,1.9-1l3.4-8.3c0.5-1.1,0.1-1.7-0.6-2
				c-0.8-0.3-1.4-0.1-1.9,1L220.9,43.8z"/>
			<path fill="#FFFFFF" d="M248.3,58.2L248.3,58.2l8.6-8.3l2.9,2.2l-10.1,13.3l-2-1.5l7.3-9.5l0,0l-8.7,8.4l-2-1.5l5.7-10.5l0,0
				l-7.2,9.4l-1.8-1.4l10.1-13.3l2.9,2.2L248.3,58.2z"/>
		</g>
		<g>
			<path fill="#FFFFFF" d="M111.8,238.3c1.8,1.9,1.5,3.9-0.4,5.7l-0.4,0.4l-1.7-1.8l0.5-0.5c0.9-0.8,0.9-1.5,0.3-2.1
				c-0.6-0.6-1.2-0.6-2.1,0.2c-0.9,0.8-1.2,1.8-1.1,4.1c0.1,2.9-0.4,4.4-1.8,5.7c-1.9,1.8-4,1.9-5.7,0s-1.6-3.9,0.4-5.7l0.7-0.7
				l1.7,1.8l-0.9,0.8c-0.9,0.8-0.8,1.5-0.2,2.1c0.6,0.6,1.2,0.7,2.1-0.1c0.9-0.8,1.2-1.8,1.1-4.1c-0.1-2.9,0.4-4.4,1.8-5.7
				C108.1,236.6,110.1,236.5,111.8,238.3z"/>
			<path fill="#FFFFFF" d="M122.7,253.5c1.5-2.2,3.5-2.7,5.6-1.3c2.2,1.4,2.5,3.5,1,5.7l-4.8,7.3c-1.5,2.2-3.5,2.7-5.6,1.3
				c-2.2-1.4-2.5-3.5-1-5.7L122.7,253.5z M120,262.3c-0.7,1-0.5,1.7,0.2,2.1c0.7,0.5,1.4,0.4,2-0.6l5-7.5c0.7-1,0.5-1.7-0.2-2.1
				c-0.7-0.5-1.4-0.4-2,0.6L120,262.3z"/>
			<path fill="#FFFFFF" d="M144.2,260.8l2.5,0.9l-4.9,13.4l4.1,1.5l-0.8,2.2l-6.5-2.4L144.2,260.8z"/>
			<path fill="#FFFFFF" d="M166.5,266.7l-1.5,12.8c-0.1,1.2,0.3,1.7,1.2,1.8c0.8,0.1,1.4-0.3,1.5-1.4l1.5-12.8l2.5,0.3l-1.5,12.6
				c-0.3,2.7-1.8,4-4.4,3.7c-2.6-0.3-3.7-2-3.4-4.6l1.5-12.6L166.5,266.7z"/>
			<path fill="#FFFFFF" d="M185.2,267.4l8.1-0.9l0.3,2.4l-2.7,0.3l1.6,14.2l-2.6,0.3l-1.6-14.2l-2.7,0.3L185.2,267.4z"/>
			<path fill="#FFFFFF" d="M206.6,263.3l2.5-0.8l5.2,15.9l-2.5,0.8L206.6,263.3z"/>
			<path fill="#FFFFFF" d="M224.2,260.3c-1.3-2.3-0.9-4.3,1.3-5.6c2.2-1.3,4.2-0.7,5.6,1.6l4.4,7.5c1.3,2.3,0.9,4.3-1.3,5.6
				c-2.2,1.3-4.2,0.7-5.6-1.6L224.2,260.3z M231,266.6c0.6,1,1.3,1.2,2,0.7c0.7-0.4,0.9-1.1,0.3-2.1l-4.6-7.8c-0.6-1-1.3-1.2-2-0.7
				c-0.7,0.4-0.9,1.1-0.3,2.1L231,266.6z"/>
			<path fill="#FFFFFF" d="M245.3,246L245.3,246l8.4,8.7l-1.7,1.6l-11.6-12l2.4-2.3l8.8,5.3l0,0l-6.9-7.2l1.7-1.6l11.6,12l-1.9,1.9
				L245.3,246z"/>
			<path fill="#FFFFFF" d="M257,224.3c1.4-2.2,3.4-2.4,5.6-1l0.4,0.3l-1.3,2.1l-0.6-0.4c-1-0.6-1.6-0.5-2.1,0.2
				c-0.4,0.7-0.3,1.3,0.7,2c1,0.7,2.1,0.7,4.3,0c2.8-0.8,4.3-0.7,6,0.4c2.3,1.4,2.8,3.4,1.4,5.5c-1.4,2.2-3.4,2.5-5.6,1.1l-0.9-0.5
				l1.3-2.1l1,0.6c1,0.6,1.7,0.4,2.1-0.3c0.4-0.7,0.4-1.4-0.6-2c-1-0.7-2.1-0.7-4.3,0c-2.8,0.8-4.3,0.7-6-0.4
				C256.2,228.4,255.6,226.5,257,224.3z"/>
		</g>
		<g>
			<path fill="#FFFFFF" d="M168.9,213.9l1.3-1h6.9l1.4,1.1c0,0-1.3-0.2-1.3,1.4c0,1.6,0,2.5,0,2.5h-1.6v-3h-5.3
				C170.3,215,170.1,213.9,168.9,213.9z"/>
			<path fill="#FFFFFF" d="M180.8,215.4c0-1.6-1.3-1.4-1.3-1.4l1.4-1.1h6.9l1.3,1c-1.2,0-1.4,1.1-1.4,1.1h-5.3v3.5h3.4l1.5,1
				c0,0-1.4,0-1.4,2s0,2.4,0,2.4H183c0,0,1.1-0.9,1.1-2.3c0-1.3,0-1.4,0-1.4h-1.5v6.8l-1.7,1.4v-8.1h-6.7v5.3l-1.7-1.2v-3.3
				c0,0,0-1.2-1.9-1.2l1.8-1.4h8.4V215.4z"/>
			<path fill="#FFFFFF" d="M190.7,224.6l-1.3-1h-1.8l-8.3,6.5l-1.9-1.3v-7.7h-1.7l0,6.3l-4.5-3.7h-2l-1.7,1.1c1.7,0,1.8,1.5,1.8,1.5
				v11.2c0,1.7-1.1,2.1-1.1,2.1h2.8v-14.4l1.9,1.6v13.5h3v4.7h-2.9v-2.9h-2.9l1.1,1.1v0.8c0,1.8-1.1,1.9-1.1,1.9l1.5,0.7h6.2v-16.1
				l1.1,0.7c0,0.8-0.7,1.1-0.7,1.1c0.9,0,1.4,0.8,1.4,0.8c0-0.5,1.2-0.7,1.2-0.7c-0.6,0-0.5-1.2-0.5-1.2l0.8-0.6v3.2h-1.6l-1.1,1.1
				c0.9,0,1.3,1.3,1.3,1.3c0-0.7,1.4-0.7,1.4-0.7v2.6h1.7v-2.6h1.6v3h-5.9v1.7h2.6v6.4h6.9l1.3-0.9c-1.3,0-1.4-1.3-1.4-1.3V243
				l0.9-1h-2.8v3.2h-3v-4.8h3.4v-6.5h-3.5v-4.4l5-4.3v14.6h2.8c-1.1,0-1.2-1.9-1.2-1.9s0-9.3,0-11.3
				C189.2,224.6,190.7,224.6,190.7,224.6z M175.7,238.6h-1.4v-10.5l1.4,1.1V238.6z"/>
		</g>
		<g>
			<path d="M81.5,97.4c0,0,0,1.7,0,4.6c-0.1,1.5-0.2,3.2-0.5,5.3c-0.1,1-0.3,2.1-0.4,3.2c-0.2,1.1-0.4,2.3-0.7,3.5
				c-0.2,1.2-0.6,2.5-0.9,3.8c-0.3,1.3-0.7,2.7-1.1,4.1c-0.4,1.4-0.8,2.8-1.3,4.2c-0.4,1.4-0.9,2.9-1.5,4.4c-1,3-2.2,6-3.3,9.1
				c-1.1,3.1-2.2,6.2-3.4,9.4c-0.5,1.6-1,3.2-1.5,4.8c-0.3,0.8-0.5,1.6-0.8,2.4c-0.3,0.8-0.5,1.6-0.7,2.4c-0.4,1.6-0.8,3.2-1.2,4.7
				c-0.4,1.6-0.8,3.1-1,4.6c-0.1,0.8-0.3,1.5-0.4,2.3c-0.1,0.8-0.2,1.5-0.3,2.3c-0.1,0.7-0.2,1.5-0.3,2.2c-0.1,0.7-0.1,1.5-0.2,2.2
				c-0.1,1.4-0.2,2.8-0.1,4.2c0,1.3,0,2.7,0.1,3.9c0.1,1.2,0.2,2.4,0.3,3.6c0.2,1.1,0.4,2.2,0.5,3.2c0.1,1,0.4,1.9,0.6,2.8
				c0.2,0.9,0.4,1.6,0.6,2.3c0.5,1.4,0.9,2.4,1.2,3.2c0.3,0.7,0.4,1.1,0.4,1.1s-0.2-0.4-0.5-1.1c-0.3-0.7-0.7-1.8-1.3-3.2
				c-0.2-0.7-0.4-1.5-0.7-2.3c-0.2-0.8-0.6-1.8-0.7-2.8c-0.2-1-0.4-2.1-0.6-3.2c-0.1-1.1-0.2-2.3-0.4-3.6c-0.2-1.2-0.1-2.6-0.2-3.9
				c-0.1-1.4,0-2.8,0.1-4.2c0-0.7,0.1-1.5,0.1-2.2c0.1-0.7,0.2-1.5,0.3-2.2c0.1-0.8,0.2-1.5,0.3-2.3c0.1-0.8,0.3-1.5,0.4-2.3
				c0.2-1.5,0.6-3.1,1-4.7c0.4-1.6,0.8-3.2,1.2-4.8c0.2-0.8,0.4-1.6,0.7-2.4c0.3-0.8,0.5-1.6,0.8-2.4c0.5-1.6,1-3.2,1.5-4.8
				c1.1-3.1,2.3-6.3,3.4-9.4c1.1-3.1,2.3-6.1,3.3-9.1c0.5-1.5,1-2.9,1.5-4.4c0.5-1.4,0.9-2.8,1.3-4.2c0.4-1.4,0.8-2.7,1.1-4
				c0.3-1.3,0.7-2.6,0.9-3.8c0.3-1.2,0.5-2.4,0.7-3.5c0.2-1.1,0.4-2.2,0.5-3.2c0.3-2,0.4-3.8,0.6-5.2C81.5,99.1,81.5,97.4,81.5,97.4
				z"/>
			<path d="M142.3,197.1c0,0,0.4-0.1,1.2-0.4c0.4-0.1,0.8-0.3,1.4-0.4c0.3-0.1,0.5-0.2,0.8-0.3c0.3-0.1,0.6-0.2,0.9-0.4
				c0.6-0.3,1.3-0.6,2-0.9c0.7-0.3,1.4-0.7,2.2-1.1c0.7-0.4,1.5-0.8,2.3-1.3c0.7-0.5,1.5-1,2.2-1.5c0.7-0.6,1.4-1.1,2.1-1.7
				c0.7-0.5,1.3-1.2,1.9-1.7c0.6-0.6,1.2-1.1,1.7-1.7c0.5-0.6,1-1.1,1.4-1.6c0.2-0.3,0.4-0.5,0.6-0.7c0.2-0.2,0.4-0.5,0.5-0.7
				c0.3-0.4,0.6-0.8,0.8-1.1c0.5-0.6,0.8-1,0.8-1s-0.2,0.4-0.6,1.1c-0.2,0.3-0.5,0.7-0.8,1.2c-0.1,0.2-0.3,0.5-0.5,0.8
				c-0.2,0.3-0.4,0.5-0.6,0.8c-0.4,0.5-0.9,1.1-1.4,1.7c-0.5,0.6-1.1,1.2-1.7,1.8c-0.6,0.6-1.2,1.3-1.9,1.8
				c-0.7,0.6-1.4,1.1-2.1,1.7c-0.8,0.5-1.5,1-2.3,1.5c-0.7,0.5-1.5,0.9-2.3,1.3c-0.8,0.4-1.5,0.8-2.2,1c-0.7,0.3-1.4,0.5-2.1,0.8
				c-0.3,0.1-0.6,0.2-0.9,0.3c-0.3,0.1-0.6,0.1-0.9,0.2c-0.5,0.1-1,0.2-1.4,0.3C142.8,197,142.3,197.1,142.3,197.1z"/>
			<path d="M108.5,140.5c0,0-0.1,0.1-0.4,0.2c-0.2,0.1-0.6,0.2-1,0.5c-0.2,0.1-0.4,0.2-0.7,0.4c-0.2,0.2-0.5,0.3-0.8,0.5
				c-0.5,0.4-1.1,0.9-1.6,1.5c-0.3,0.3-0.5,0.6-0.8,0.9c-0.3,0.4-0.5,0.7-0.8,1.1c-0.5,0.8-0.9,1.7-1.4,2.6
				c-0.2,0.5-0.3,0.9-0.5,1.4c-0.2,0.5-0.3,1-0.5,1.5c-0.1,0.5-0.2,1-0.4,1.6l-0.2,1.6c-0.1,0.5-0.1,1.1-0.2,1.6
				c0,0.5-0.1,1.1-0.1,1.6c0,0.5,0,1.1,0,1.6c0,0.5,0,1,0,1.5c0.1,1,0.1,2,0.2,2.9c0.1,0.9,0.2,1.8,0.4,2.6c0.2,0.8,0.3,1.5,0.5,2.2
				c0.2,0.6,0.3,1.2,0.5,1.6c0.3,0.9,0.5,1.4,0.5,1.4s-0.2-0.5-0.6-1.4c-0.2-0.4-0.4-1-0.6-1.6c-0.1-0.3-0.2-0.7-0.3-1
				c-0.1-0.4-0.2-0.7-0.3-1.1c-0.2-0.8-0.4-1.7-0.5-2.6c-0.1-0.9-0.3-1.9-0.3-2.9c0-0.5,0-1-0.1-1.6c0-0.5,0-1.1,0-1.6
				c0-0.5,0.1-1.1,0.1-1.6c0-0.5,0.1-1.1,0.2-1.6l0.3-1.6c0.1-0.5,0.3-1.1,0.4-1.6c0.1-0.5,0.3-1,0.5-1.5c0.2-0.5,0.3-1,0.6-1.5
				c0.5-0.9,0.9-1.8,1.5-2.6c0.3-0.4,0.6-0.7,0.8-1.1c0.3-0.3,0.6-0.7,0.9-0.9c0.6-0.6,1.2-1,1.8-1.4c0.3-0.2,0.6-0.3,0.8-0.5
				c0.3-0.1,0.5-0.2,0.7-0.3c0.4-0.2,0.8-0.3,1-0.4C108.4,140.5,108.5,140.5,108.5,140.5z"/>
			<path d="M132.9,100.9c0,0-0.5,4.2-1.2,10.6c-0.4,3.2-0.8,6.9-1.3,10.9c-0.5,4-1,8.2-1.6,12.4c-0.6,4.2-1.1,8.5-1.6,12.4
				c-0.3,2-0.5,3.9-0.8,5.7c-0.3,1.8-0.5,3.5-0.6,5.1c-0.1,0.8-0.1,1.6-0.1,2.3c0,0.4,0,0.7,0,1.1c0,0.3,0.1,0.7,0.1,1
				c0,0.6,0.2,1.2,0.3,1.8c0.1,0.3,0.1,0.5,0.2,0.8c0.1,0.2,0.2,0.5,0.2,0.7c0.2,0.4,0.3,0.8,0.4,1.2c0.2,0.3,0.3,0.6,0.4,0.8
				c0.2,0.4,0.4,0.7,0.4,0.7s-0.1-0.2-0.4-0.7c-0.1-0.2-0.3-0.5-0.5-0.8c-0.2-0.3-0.3-0.7-0.5-1.2c-0.1-0.2-0.2-0.4-0.3-0.7
				c-0.1-0.3-0.1-0.5-0.2-0.8c-0.1-0.5-0.3-1.1-0.3-1.8c0-0.3-0.1-0.7-0.1-1c0-0.3,0-0.7,0-1.1c0-0.7,0-1.5,0-2.3
				c0.1-1.6,0.3-3.3,0.5-5.2c0.2-1.8,0.5-3.7,0.7-5.7c0.5-4,1-8.2,1.6-12.4c0.6-4.2,1.1-8.5,1.6-12.4c0.5-4,1.1-7.7,1.5-10.8
				C132.2,105.1,132.9,100.9,132.9,100.9z"/>
			<path d="M157.6,75.3c0,0-0.1,1.4-0.3,3.9c-0.1,1.3-0.2,2.8-0.4,4.5c-0.1,1.7-0.4,3.7-0.6,5.9c-0.5,4.3-1.1,9.3-1.8,14.6
				c-0.3,2.7-0.7,5.4-1.1,8.2c-0.4,2.8-0.7,5.7-1,8.5c-0.2,1.4-0.3,2.9-0.5,4.3c-0.2,1.4-0.3,2.8-0.4,4.3c-0.1,1.4-0.3,2.8-0.4,4.2
				c-0.1,1.4-0.3,2.7-0.3,4.1c-0.2,2.7-0.3,5.3-0.5,7.8c-0.1,2.5-0.1,4.8-0.1,7c0,2.2-0.1,4.1,0,5.9c0.1,1.7,0.4,3.2,0.8,4.4
				c0.4,1.2,0.9,2,1.3,2.6c0.4,0.5,0.7,0.8,0.7,0.8s-0.2-0.3-0.7-0.8c-0.4-0.5-0.9-1.4-1.4-2.6c-0.4-1.2-0.7-2.7-0.9-4.5
				c-0.2-1.8-0.1-3.7-0.2-5.9c0-2.2,0-4.5,0-7c0.1-2.5,0.2-5.1,0.4-7.8c0-1.4,0.2-2.7,0.3-4.1c0.1-1.4,0.2-2.8,0.4-4.2
				c0.1-1.4,0.2-2.8,0.4-4.3c0.2-1.4,0.3-2.9,0.5-4.3c0.3-2.9,0.7-5.7,1.1-8.5c0.4-2.8,0.7-5.6,1.1-8.2c0.4-2.7,0.7-5.3,1.1-7.7
				c0.3-2.5,0.6-4.8,0.9-6.9c0.3-2.1,0.6-4.1,0.7-5.8c0.2-1.7,0.4-3.3,0.5-4.5C157.4,76.7,157.6,75.3,157.6,75.3z"/>
			<path d="M175.2,133c0,0-0.4,0.3-1.1,1c-0.4,0.3-0.7,0.7-1.2,1.1c-0.2,0.2-0.4,0.5-0.7,0.7c-0.2,0.3-0.5,0.6-0.7,0.8
				c-0.5,0.6-1,1.3-1.5,2c-0.3,0.4-0.5,0.7-0.7,1.1c-0.2,0.4-0.5,0.8-0.7,1.2c-0.4,0.9-0.9,1.7-1.2,2.7c-0.4,0.9-0.7,1.9-1,2.9
				c-0.2,1-0.5,2-0.6,3c-0.2,1-0.2,2-0.3,2.9c0,0.5,0,0.9,0,1.4c0,0.5,0,0.9,0.1,1.4c0.1,0.9,0.2,1.7,0.3,2.5
				c0.1,0.8,0.3,1.4,0.4,2.1c0.1,0.6,0.3,1.1,0.4,1.6c0.3,0.9,0.4,1.3,0.4,1.3s-0.2-0.5-0.6-1.3c-0.2-0.4-0.4-0.9-0.6-1.5
				c-0.1-0.3-0.2-0.6-0.3-1c-0.1-0.3-0.2-0.7-0.2-1.1c-0.2-0.8-0.3-1.6-0.4-2.5c-0.1-0.9-0.1-1.8-0.2-2.8c0-1,0.1-2,0.2-3
				c0.1-1,0.4-2,0.6-3c0.3-1,0.6-2,1-3c0.4-1,0.9-1.8,1.3-2.7c0.5-0.8,1-1.7,1.5-2.4c0.5-0.7,1.1-1.4,1.6-1.9
				c0.3-0.3,0.5-0.6,0.8-0.8c0.3-0.2,0.5-0.5,0.7-0.7c0.5-0.4,0.9-0.8,1.2-1.1C174.8,133.3,175.2,133,175.2,133z"/>
			<path d="M186.6,91.7c0,0-0.4,0.1-1.2,0.2c-0.4,0-0.8,0.2-1.3,0.4c-0.5,0.1-1,0.5-1.6,0.7c-0.3,0.1-0.6,0.4-0.9,0.6
				c-0.3,0.2-0.6,0.4-0.9,0.7c-0.3,0.3-0.6,0.5-0.8,0.8c-0.3,0.3-0.5,0.6-0.8,0.9c-0.3,0.3-0.5,0.6-0.8,1c-0.2,0.3-0.5,0.7-0.7,1
				c-0.2,0.4-0.4,0.7-0.6,1.1l-0.6,1.2c-0.2,0.4-0.4,0.8-0.5,1.2c-0.1,0.4-0.3,0.8-0.4,1.2c-0.2,0.8-0.5,1.6-0.6,2.4
				c-0.1,0.4-0.1,0.8-0.2,1.2c0,0.4-0.1,0.8-0.1,1.1c-0.1,0.7-0.1,1.5-0.1,2.1c0,0.7,0.1,1.3,0.1,1.8c0,0.5,0.1,1,0.1,1.4
				c0.1,0.8,0.2,1.2,0.2,1.2s-0.1-0.4-0.3-1.2c-0.1-0.4-0.2-0.8-0.3-1.4c-0.1-0.5-0.2-1.1-0.2-1.8c0-0.7-0.1-1.4,0-2.2
				c0-0.4,0-0.8,0.1-1.2c0-0.4,0.1-0.8,0.2-1.2c0.1-0.8,0.4-1.7,0.6-2.5c0.1-0.4,0.3-0.8,0.4-1.3c0.1-0.4,0.3-0.9,0.5-1.2l0.6-1.2
				c0.2-0.4,0.5-0.8,0.7-1.2c0.2-0.4,0.5-0.7,0.8-1.1c0.3-0.4,0.5-0.7,0.8-1c0.3-0.3,0.6-0.6,0.9-0.9c0.3-0.3,0.6-0.5,0.9-0.8
				c0.3-0.3,0.6-0.4,0.9-0.6c0.3-0.2,0.6-0.4,0.9-0.5c0.6-0.3,1.2-0.6,1.7-0.6c0.5-0.1,1-0.3,1.4-0.3
				C186.1,91.8,186.6,91.7,186.6,91.7z"/>
			<path d="M196.5,114.2c0,0,0.1,0.7,0.1,1.7c0,0.2,0,0.5,0,0.8c0,0.3,0,0.6-0.1,0.9c-0.1,0.6-0.1,1.3-0.2,2
				c-0.2,0.6-0.3,1.3-0.5,1.9c-0.1,0.3-0.1,0.6-0.3,0.9c-0.1,0.3-0.2,0.5-0.3,0.7c-0.4,0.9-0.7,1.5-0.7,1.5s0.1-0.7,0.4-1.6
				c0.1-0.2,0.1-0.5,0.2-0.8c0.1-0.3,0.1-0.6,0.2-0.9c0.1-0.6,0.3-1.2,0.4-1.9c0.1-0.6,0.2-1.3,0.3-1.9c0-0.3,0.1-0.6,0.1-0.9
				c0-0.3,0.1-0.5,0.1-0.8C196.4,114.8,196.5,114.2,196.5,114.2z"/>
			<path d="M203.4,134.7c0,0,0.1,0,0.3,0.1c0.1,0,0.2,0,0.3,0.1c0.1,0,0.2,0.1,0.4,0.2c0.3,0.2,0.5,0.5,0.7,0.9
				c0.2,0.4,0.3,1,0.2,1.5c0,0.1,0,0.3,0,0.4c0,0.1-0.1,0.3-0.1,0.4c-0.1,0.3-0.2,0.6-0.3,0.9c-0.2,0.6-0.5,1.2-0.8,1.8
				c-0.3,0.6-0.5,1.3-0.7,1.9c-0.2,0.7-0.5,1.3-0.6,2c-0.2,0.7-0.4,1.4-0.5,2.1c-0.1,0.3-0.1,0.7-0.2,1c0,0.3-0.1,0.7-0.1,1
				c-0.1,0.7-0.2,1.3-0.2,1.9c-0.1,0.6-0.1,1.2-0.1,1.7c0,0.5,0,1-0.1,1.5c0,0.4,0,0.8,0,1.1c0,0.6,0,1,0,1s-0.1-0.4-0.1-1
				c0-0.3-0.1-0.7-0.1-1.1c0-0.4-0.1-0.9-0.1-1.5c0-0.5,0-1.1,0-1.8c0-0.6,0.1-1.3,0.2-2c0-0.3,0.1-0.7,0.1-1
				c0.1-0.3,0.1-0.7,0.2-1.1c0.1-0.7,0.3-1.4,0.5-2.1c0.2-0.7,0.4-1.4,0.7-2.1c0.2-0.7,0.5-1.3,0.8-2c0.3-0.6,0.6-1.2,0.8-1.8
				c0.1-0.3,0.3-0.5,0.3-0.8c0-0.1,0.1-0.3,0.1-0.4c0-0.1,0-0.3,0.1-0.4c0.1-0.5,0.1-1-0.1-1.4c-0.1-0.4-0.3-0.7-0.6-0.9
				c-0.1-0.1-0.2-0.2-0.3-0.3c-0.1-0.1-0.2-0.1-0.3-0.1C203.5,134.7,203.4,134.7,203.4,134.7z"/>
			<path d="M221.4,133.4c0,0-0.4,1.6-1.1,4c-0.2,0.6-0.3,1.3-0.5,1.9c-0.2,0.7-0.3,1.4-0.5,2.2c-0.4,1.5-0.6,3.1-0.9,4.8
				c-0.2,0.8-0.2,1.6-0.4,2.4c-0.1,0.8-0.2,1.6-0.3,2.4c-0.2,1.5-0.3,3-0.2,4.2c0.1,0.6,0.1,1.2,0.2,1.7c0.1,0.5,0.3,0.9,0.4,1.2
				c0.1,0.3,0.3,0.6,0.4,0.8c0.1,0.2,0.1,0.3,0.1,0.3s-0.1-0.1-0.2-0.2c-0.1-0.2-0.3-0.4-0.4-0.7c-0.1-0.3-0.4-0.7-0.5-1.2
				c-0.2-0.5-0.3-1.1-0.4-1.7c-0.1-0.6-0.1-1.3-0.1-2c0-0.7,0-1.5,0.1-2.3c0.1-0.8,0.2-1.6,0.3-2.4c0.1-0.8,0.2-1.6,0.3-2.5
				c0.3-1.6,0.6-3.3,1-4.8c0.2-0.8,0.4-1.5,0.6-2.2c0.2-0.7,0.4-1.3,0.6-1.9C220.8,135,221.4,133.4,221.4,133.4z"/>
			<path d="M238.5,126.5c0,0,0.1,0.4,0.2,1.2c0.1,0.4,0.1,0.8,0.1,1.3c0,0.5,0.1,1.1,0,1.8c0,0.6-0.1,1.3-0.1,2.1
				c-0.1,0.7-0.2,1.5-0.3,2.3c-0.3,1.6-0.6,3.3-1,4.9c-0.4,1.7-0.8,3.3-1,4.9c-0.1,0.8-0.3,1.5-0.4,2.3c-0.1,0.7-0.2,1.4-0.2,2
				c-0.1,0.6-0.1,1.2-0.1,1.7c0,0.5,0,1,0,1.3c0,0.7,0.1,1.2,0.1,1.2s-0.1-0.4-0.2-1.2c-0.1-0.4-0.1-0.8-0.1-1.3
				c0-0.3,0-0.5-0.1-0.8c0-0.3,0-0.6,0-0.9c0-0.6,0-1.3,0.1-2.1c0-0.7,0.2-1.5,0.3-2.3c0.3-1.6,0.6-3.3,1-4.9c0.4-1.7,0.8-3.3,1-4.9
				c0.1-0.8,0.3-1.5,0.4-2.3c0.1-0.7,0.2-1.4,0.2-2c0.1-0.6,0.1-1.2,0.1-1.7c0-0.5,0-1,0-1.3C238.5,126.9,238.5,126.5,238.5,126.5z"
				/>
			<path d="M226.6,112.2c0,0,0,0,0.1,0.1c0.1,0,0.2,0.1,0.3,0.2c0.1,0.1,0.3,0.2,0.4,0.4c0.1,0.2,0.3,0.4,0.4,0.7
				c0.1,0.3,0.2,0.5,0.2,0.9c0.1,0.4,0,0.6,0,1c0,0.3-0.1,0.7-0.2,1c-0.1,0.3-0.2,0.7-0.3,1c-0.4,1.3-0.8,2.7-1.2,3.6
				c-0.2,0.5-0.4,0.9-0.5,1.2c-0.1,0.3-0.2,0.4-0.2,0.4s0-0.2,0.1-0.5c0-0.1,0.1-0.3,0.1-0.5c0.1-0.2,0.1-0.4,0.1-0.7
				c0.2-1,0.6-2.4,0.9-3.7c0.2-0.7,0.4-1.3,0.5-1.9c0-0.3,0.1-0.7,0.1-0.9c0-0.3-0.1-0.5-0.1-0.8c-0.1-0.5-0.3-0.9-0.5-1.1
				C226.8,112.3,226.6,112.2,226.6,112.2z"/>
			<path d="M258.7,126.3c0,0,0.1,0,0.3,0.1c0.1,0,0.2,0.1,0.4,0.2c0.1,0.1,0.3,0.2,0.5,0.3c0.3,0.2,0.7,0.6,1,1.1
				c0.3,0.5,0.5,1.1,0.6,1.8c0.1,0.7,0.1,1.5-0.1,2.3c-0.1,0.8-0.3,1.6-0.5,2.5c-0.4,1.7-0.8,3.5-1.2,5.3c-0.4,1.8-0.8,3.6-1.2,5.3
				c-0.4,1.7-0.8,3.2-1.1,4.6c-0.7,2.7-1.2,4.5-1.2,4.5s0.3-1.8,0.8-4.5c0.3-1.4,0.6-2.9,0.9-4.6c0.4-1.7,0.8-3.5,1.2-5.3
				c0.4-1.8,0.8-3.6,1.2-5.3c0.2-0.8,0.4-1.6,0.5-2.4c0.1-0.8,0.2-1.5,0.2-2.2c0-0.7-0.2-1.3-0.4-1.8c-0.2-0.5-0.5-0.9-0.8-1.1
				c-0.3-0.3-0.6-0.4-0.8-0.5C258.8,126.4,258.7,126.3,258.7,126.3z"/>
			<path d="M280.5,125.9c0,0-0.2,0.4-0.6,1c-0.2,0.3-0.4,0.7-0.7,1.2c-0.3,0.5-0.6,1-0.9,1.6c-0.3,0.6-0.6,1.2-0.9,1.9
				c-0.4,0.7-0.6,1.4-0.9,2.2c-0.3,0.8-0.7,1.5-0.9,2.3c-0.3,0.8-0.5,1.6-0.8,2.5c-0.2,0.8-0.4,1.7-0.6,2.5
				c-0.2,0.8-0.3,1.7-0.4,2.5c-0.1,0.8-0.3,1.6-0.3,2.3c-0.1,0.7-0.1,1.4-0.2,2.1c-0.1,0.7-0.1,1.2-0.1,1.8c0,0.5,0,1,0,1.4
				c0,0.8,0,1.2,0,1.2s0-0.4-0.1-1.2c0-0.4-0.1-0.8-0.1-1.4c0-0.3,0-0.6-0.1-0.8c0-0.3,0-0.6,0-0.9c0-0.7,0-1.4,0-2.1
				c0-0.8,0.1-1.5,0.2-2.4c0.1-0.8,0.2-1.7,0.4-2.5c0.2-0.8,0.4-1.7,0.6-2.6c0.3-0.8,0.6-1.7,0.8-2.5c0.2-0.8,0.6-1.6,0.9-2.4
				c0.3-0.8,0.6-1.5,1-2.1c0.4-0.7,0.7-1.3,1-1.9c0.2-0.3,0.3-0.6,0.5-0.8c0.2-0.2,0.3-0.5,0.5-0.7c0.3-0.4,0.6-0.8,0.8-1.1
				C280.2,126.3,280.5,125.9,280.5,125.9z"/>
			<path d="M306.5,110.9c0,0,0.1,0.6,0.1,1.5c0,0.5,0,1.1-0.1,1.8c-0.1,0.3-0.1,0.7-0.2,1.1c-0.1,0.4-0.2,0.8-0.4,1.2
				c-0.3,0.8-0.6,1.6-1.1,2.5c-0.2,0.4-0.5,0.8-0.8,1.3c-0.3,0.4-0.6,0.8-0.9,1.3c-0.7,0.9-1.4,1.6-2.2,2.4
				c-0.8,0.8-1.6,1.5-2.4,2.3c-0.8,0.8-1.7,1.5-2.4,2.2c-0.8,0.8-1.6,1.5-2.2,2.3c-0.4,0.4-0.7,0.8-1,1.2c-0.3,0.4-0.6,0.8-0.9,1.1
				c-0.6,0.8-1,1.5-1.4,2.3c-0.2,0.4-0.4,0.7-0.5,1.1c-0.1,0.4-0.3,0.7-0.4,1c-0.2,0.6-0.3,1.2-0.5,1.7c-0.1,1-0.2,1.5-0.2,1.5
				s0-0.6,0.1-1.5c0.1-0.5,0.1-1.1,0.3-1.7c0.1-0.3,0.2-0.7,0.3-1c0.2-0.4,0.3-0.7,0.5-1.1c0.4-0.8,0.8-1.6,1.3-2.4
				c0.5-0.8,1.2-1.6,1.8-2.4c0.7-0.8,1.5-1.5,2.3-2.3c0.8-0.8,1.6-1.5,2.4-2.3c0.8-0.8,1.6-1.5,2.4-2.3c0.7-0.8,1.5-1.6,2.2-2.3
				c0.3-0.4,0.6-0.8,0.9-1.2c0.3-0.4,0.6-0.8,0.8-1.2c0.5-0.8,0.9-1.6,1.2-2.4c0.1-0.4,0.3-0.8,0.4-1.1c0.1-0.4,0.2-0.7,0.3-1
				c0.2-0.7,0.2-1.2,0.2-1.7C306.5,111.5,306.5,110.9,306.5,110.9z"/>
			<path d="M286.7,160.5c0,0,0.2-0.1,0.6-0.2c0.4-0.1,0.9-0.2,1.6-0.3c0.3-0.1,0.7-0.1,1.1-0.1c0.4,0,0.8,0,1.3-0.1
				c0.4,0,0.9,0,1.3,0.1c0.5,0,0.9,0.2,1.4,0.3c0.5,0.2,0.9,0.3,1.3,0.6c0.4,0.2,0.8,0.5,1.1,0.8c0.3,0.3,0.6,0.6,0.8,1
				c0.2,0.3,0.4,0.7,0.5,1c0.1,0.2,0.1,0.3,0.2,0.5c0,0.2,0,0.3,0.1,0.5c0,0.3,0.1,0.5,0,0.7c0,0.4-0.1,0.6-0.1,0.6s0-0.2-0.1-0.6
				c0-0.2-0.1-0.4-0.1-0.7c0-0.1-0.1-0.3-0.1-0.4c-0.1-0.1-0.1-0.3-0.2-0.4c-0.1-0.3-0.4-0.6-0.6-0.9c-0.2-0.3-0.5-0.6-0.8-0.8
				c-0.3-0.2-0.7-0.5-1-0.7c-0.3-0.2-0.8-0.4-1.2-0.5c-0.4-0.1-0.8-0.2-1.3-0.3c-0.4-0.1-0.9-0.1-1.3-0.2c-0.4,0-0.8,0-1.2,0
				c-0.4,0-0.8,0-1.1,0C287.6,160.5,286.7,160.5,286.7,160.5z"/>
			<path d="M187.7,189.6c0,0,0.1-0.4,0.2-1.1c0.1-0.3,0.2-0.7,0.3-1.2c0.1-0.5,0.3-1,0.5-1.6c0.2-0.6,0.4-1.2,0.7-1.8
				c0.2-0.6,0.6-1.3,1-1.9c0.4-0.6,0.8-1.3,1.3-1.9c0.5-0.6,1.1-1.2,1.6-1.8c0.7-0.5,1.2-1,2-1.4c0.7-0.4,1.4-0.7,2.1-1
				c0.4-0.1,0.7-0.2,1.1-0.3c0.4-0.1,0.7-0.2,1-0.2c0.7-0.1,1.3-0.1,1.9,0c0.3,0,0.6,0.1,0.9,0.1c0.3,0.1,0.5,0.1,0.7,0.2
				c0.2,0.1,0.5,0.1,0.7,0.2c0.2,0.1,0.4,0.2,0.5,0.2c0.6,0.3,1,0.5,1,0.5s-0.4-0.1-1-0.4c-0.2-0.1-0.3-0.1-0.5-0.2
				c-0.2,0-0.4-0.1-0.7-0.1c-0.2,0-0.5-0.1-0.7-0.1c-0.3,0-0.5,0-0.8,0c-0.6-0.1-1.2,0-1.9,0.1c-0.3,0-0.7,0.1-1,0.2
				c-0.3,0.1-0.7,0.2-1,0.3c-0.7,0.3-1.4,0.5-2,0.9c-0.6,0.3-1.3,0.9-1.9,1.3c-0.5,0.5-1.1,1-1.6,1.7c-0.5,0.6-0.9,1.2-1.3,1.8
				c-0.3,0.6-0.7,1.2-1,1.8c-0.3,0.6-0.6,1.2-0.8,1.7c-0.4,1.1-0.8,2-1,2.7C187.8,189.2,187.7,189.6,187.7,189.6z"/>
			<path d="M271.7,191.2c0,0,0.4,0,1.2,0c0.4,0,0.8,0,1.3,0c0.3,0,0.5,0,0.8,0c0.3,0,0.6,0,0.9-0.1c0.6-0.1,1.3-0.1,2-0.2
				c0.4,0,0.7-0.1,1.1-0.2c0.4-0.1,0.7-0.1,1.1-0.2c0.8-0.2,1.6-0.3,2.3-0.6c0.8-0.2,1.6-0.5,2.4-0.8c0.8-0.3,1.5-0.7,2.3-1
				c0.8-0.3,1.4-0.7,2.1-1.1c0.3-0.2,0.7-0.4,1-0.6c0.3-0.2,0.6-0.4,0.9-0.6c0.6-0.4,1.1-0.8,1.6-1.2c0.2-0.2,0.5-0.4,0.7-0.5
				c0.2-0.2,0.4-0.4,0.6-0.6c0.4-0.3,0.7-0.6,1-0.9c0.5-0.5,0.9-0.8,0.9-0.8s-0.3,0.3-0.8,0.9c-0.2,0.3-0.5,0.6-0.9,1
				c-0.2,0.2-0.4,0.4-0.6,0.6c-0.2,0.2-0.5,0.4-0.7,0.6c-0.5,0.4-1,0.8-1.6,1.3c-0.5,0.5-1.2,0.8-1.9,1.3c-0.7,0.4-1.4,0.9-2.1,1.2
				c-0.8,0.3-1.5,0.7-2.3,1.1c-0.8,0.2-1.6,0.5-2.4,0.7c-0.8,0.3-1.6,0.4-2.4,0.5c-0.8,0.1-1.5,0.3-2.3,0.3c-0.7,0-1.4,0-2.1,0.1
				c-0.3,0-0.6,0-0.9,0c-0.3,0-0.6-0.1-0.8-0.1c-0.5-0.1-1-0.1-1.3-0.1C272.1,191.2,271.7,191.2,271.7,191.2z"/>
			<path d="M241.6,93.7c0,0,0.5-0.1,1.3-0.2c0.4-0.1,0.9-0.2,1.5-0.2c0.6-0.1,1.3-0.2,2-0.3c0.7-0.1,1.5-0.2,2.4-0.2
				c0.4,0,0.9,0,1.3-0.1c0.4,0,0.9,0,1.4,0c0.5,0,0.9,0,1.4,0.1c0.5,0.1,1,0.1,1.4,0.2c0.9,0.3,1.9,0.4,2.9,0.8
				c0.5,0.2,0.9,0.3,1.4,0.6c0.4,0.2,0.9,0.5,1.3,0.7c0.8,0.6,1.6,1.1,2.2,1.9c0.7,0.6,1.1,1.4,1.6,2.1c0.4,0.8,0.7,1.5,0.9,2.3
				c0.2,0.7,0.3,1.4,0.3,2c0,0.6,0,1.1-0.1,1.6c-0.1,0.4-0.2,0.7-0.2,1c-0.1,0.2-0.1,0.3-0.1,0.3s0-0.1,0.1-0.3c0-0.2,0.1-0.6,0.2-1
				c0.1-0.8,0-2.1-0.4-3.5c-0.2-0.7-0.5-1.4-0.9-2.1c-0.5-0.6-1-1.4-1.6-2c-0.6-0.7-1.4-1.2-2.1-1.7c-0.4-0.2-0.9-0.5-1.3-0.7
				c-0.4-0.2-0.9-0.4-1.3-0.5c-0.9-0.4-1.8-0.6-2.7-0.8c-0.5-0.1-0.9-0.1-1.4-0.2c-0.5-0.1-0.9-0.1-1.4-0.1c-0.5,0-0.9-0.1-1.3-0.1
				c-0.4,0-0.9,0-1.3,0c-0.8,0-1.6,0-2.4,0.1c-0.7,0-1.4,0.1-2,0.1c-0.6,0-1.1,0.1-1.5,0.1C242.1,93.6,241.6,93.7,241.6,93.7z"/>
		</g>
	</g>
</g>
</svg>
