<?xml version="1.0" encoding="utf-8"?>
<!-- Generator: Adobe Illustrator 17.1.0, SVG Export Plug-In . SVG Version: 6.00 Build 0)  -->
<!DOCTYPE svg PUBLIC "-//W3C//DTD SVG 1.1//EN" "http://www.w3.org/Graphics/SVG/1.1/DTD/svg11.dtd">
<svg version="1.1" id="Layer_1" xmlns="http://www.w3.org/2000/svg" xmlns:xlink="http://www.w3.org/1999/xlink" x="0px" y="0px"
	 viewBox="0 0 180 180" enable-background="new 0 0 180 180" xml:space="preserve">
<g>
	<path d="M45.6,19.3l5.8-4.3h30.5l6.1,5c0,0-5.8-1-5.8,6.1c0,7.2,0,9.6,0,9.6H75V24.2H51.7C51.9,24.3,50.9,19.3,45.6,19.3z"/>
	<path d="M97.8,26.1c0-7.2-5.8-6.1-5.8-6.1l6.1-5h30.5l5.8,4.3c-5.2,0-6.2,5-6.2,5h-23.2v15.3H120l6.4,4.3c0,0-6.4,0.1-6.4,8.6
		s0,10.8,0,10.8h-12.6c0,0,4.7-4.1,4.7-9.9s0-6.2,0-6.2h-6.5v26.8L98.2,80V47.1H68.7v22.1l-7.5-6.1V50.8c0,0-0.1-5.2-8.2-5.2
		l7.8-6.2h36.9V26.1H97.8z"/>
	<path d="M141.4,67l-6-4.3h-8.1L91,91.3l-8.5-6V52.2H75l0.1,26.9L55.3,63h-9.1l-7.7,4.8c7.4,0,7.8,6.8,7.8,6.8v49.5
		c0,7.7-4.8,9.4-4.8,9.4h12.2V69.8l8.4,7.2v59.5h13.3v20.6H62.6v-12.8h-13l4.8,4.7v3.4c0,7.9-5,8.5-5,8.5l6.5,3.1h27.4V93.2l4.7,3
		c0,3.4-3,5-3,5c3.8,0,6.4,3.4,6.4,3.4c0-2.1,5.2-3.1,5.2-3.1c-2.4,0-2.1-5.1-2.1-5.1l3.5-2.4v14h-7.2l-4.7,5c4,0,5.7,5.7,5.7,5.7
		c0-3,6.2-3,6.2-3v9.2h7.5v-9.1h7.1v13.5H89.3v7.4h9.1v28.3h30.3l5.7-3.8c-5.8,0-6.4-6-6.4-6v-6.8l4-4.5h-12.3v14h-13.3v-21.1h15.2
		v-28.6h-15.6V88.7l22.3-18.7v64.5h12.5c-5,0-5.4-8.5-5.4-8.5s0-41.1,0-49.7S141.4,67,141.4,67z M75.7,128.5h-6.2V82.1l6.2,4.8
		V128.5z"/>
</g>
</svg>
